<?xml version="1.0" encoding="iso-8859-1"?>
<!-- Generator: Adobe Illustrator 19.0.0, SVG Export Plug-In . SVG Version: 6.00 Build 0)  -->
<svg xmlns="http://www.w3.org/2000/svg" xmlns:xlink="http://www.w3.org/1999/xlink" version="1.1" id="Capa_1" x="0px" y="0px" viewBox="0 0 502.876 502.876" style="enable-background:new 0 0 502.876 502.876;" xml:space="preserve" width="512px" height="512px">
<g>
	<path d="M332.664,81.227c-32.696,0-64.555,9.416-92.137,27.223l-22.059,14.238l24.633,9.109   c49.933,18.453,83.486,66.53,83.486,119.642c0,53.103-33.553,101.189-83.491,119.653l-24.623,9.109l22.053,14.238   c27.572,17.807,59.431,27.213,92.137,27.213c93.855,0,170.211-76.356,170.211-170.211   C502.876,157.583,426.519,81.227,332.664,81.227z M332.664,395.39c-19.299,0-38.25-3.878-55.867-11.345   c46.359-27.316,76.049-77.741,76.049-132.608c0-54.877-29.685-105.292-76.049-132.597c17.623-7.477,36.573-11.355,55.867-11.355   c79.377,0,143.953,64.581,143.953,143.953S412.041,395.39,332.664,395.39z" fill="#FFFFFF"/>
	<path d="M212.581,253.407l18.556-18.084c3.58-3.487,4.867-8.709,3.323-13.468c-1.544-4.749-5.657-8.216-10.601-8.934l-25.638-3.724   l-11.473-23.233c-2.21-4.472-6.775-7.314-11.77-7.314c-5.001,0-9.56,2.841-11.776,7.324l-11.463,23.222l-25.643,3.724   c-4.944,0.718-9.057,4.186-10.601,8.934c-1.544,4.759-0.256,9.98,3.323,13.468l18.556,18.084l-4.38,25.54   c-0.846,4.924,1.18,9.899,5.221,12.832c4.047,2.955,9.406,3.323,13.827,1.005l22.936-12.052l22.936,12.052   c1.923,1.005,4.016,1.508,6.108,1.508c2.724,0,5.431-0.841,7.719-2.514c4.042-2.934,6.067-7.908,5.221-12.832L212.581,253.407z    M189.308,239.417c-3.093,3.016-4.508,7.364-3.775,11.621l1.051,6.134l-5.499-2.893c-1.913-1.005-4.01-1.507-6.108-1.507   c-2.098,0-4.195,0.502-6.108,1.507l-5.499,2.893l1.051-6.134c0.733-4.257-0.682-8.606-3.775-11.621l-4.446-4.329l6.145-0.893   c4.277-0.626,7.974-3.313,9.888-7.191l2.744-5.56l2.754,5.57c1.907,3.867,5.606,6.554,9.883,7.18l6.139,0.893L189.308,239.417z" fill="#FFFFFF"/>
	<path d="M80.287,306.715l-15.72-2.277L57.54,290.2c-2.215-4.482-6.775-7.323-11.776-7.323c-4.994,0-9.559,2.841-11.77,7.314   l-7.036,14.247l-15.714,2.277c-4.944,0.718-9.052,4.185-10.601,8.934c-1.543,4.759-0.256,9.97,3.323,13.457l11.371,11.099   l-2.683,15.652c-0.847,4.924,1.18,9.899,5.221,12.832c4.035,2.944,9.385,3.313,13.827,1.005l14.062-7.385l14.063,7.385   c1.923,1.005,4.021,1.507,6.108,1.507c2.724,0,5.431-0.84,7.719-2.512c4.042-2.934,6.067-7.908,5.221-12.832l-2.683-15.652   l11.37-11.099c3.581-3.487,4.867-8.698,3.323-13.457C89.339,310.9,85.231,307.434,80.287,306.715z M48.986,334.748   c-1.057-0.266-2.138-0.399-3.221-0.399c-1.082,0-2.164,0.133-3.22,0.399c-0.144-2.174-0.826-4.277-1.985-6.124   c2.021-0.81,3.811-2.103,5.201-3.774c1.395,1.671,3.19,2.975,5.21,3.774C49.812,330.471,49.13,332.574,48.986,334.748z" fill="#FFFFFF"/>
</g>
<g>
</g>
<g>
</g>
<g>
</g>
<g>
</g>
<g>
</g>
<g>
</g>
<g>
</g>
<g>
</g>
<g>
</g>
<g>
</g>
<g>
</g>
<g>
</g>
<g>
</g>
<g>
</g>
<g>
</g>
</svg>
