<?xml version="1.0" encoding="iso-8859-1"?>
<!-- Generator: Adobe Illustrator 19.0.0, SVG Export Plug-In . SVG Version: 6.00 Build 0)  -->
<svg xmlns="http://www.w3.org/2000/svg" xmlns:xlink="http://www.w3.org/1999/xlink" version="1.1" id="Capa_1" x="0px" y="0px" viewBox="0 0 480.009 480.009" style="enable-background:new 0 0 480.009 480.009;" xml:space="preserve" width="512px" height="512px">
<g>
	<g>
		<path d="M416.005,112.009c-6.325-0.01-12.615,0.937-18.656,2.808c-11.589-47.081-59.15-75.853-106.231-64.264    c-6.104,1.503-12.029,3.656-17.673,6.424c-30.364-53.85-98.633-72.889-152.482-42.526c-35.206,19.851-56.977,57.14-56.958,97.558    c-35.346,0-64,28.654-64,64c0,35.346,28.654,64,64,64h352c35.346,0,64-28.654,64-64    C480.005,140.663,451.351,112.009,416.005,112.009z M416.005,224.009h-352c-26.51,0-48-21.49-48-48c0-26.51,21.49-48,48-48    c2.412,0.022,4.819,0.225,7.2,0.608c4.367,0.669,8.45-2.329,9.119-6.696c0.095-0.619,0.117-1.247,0.065-1.872    c-0.216-2.656-0.408-5.328-0.408-8c-0.043-52.984,42.874-95.971,95.858-96.014c37.295-0.03,71.228,21.556,87.006,55.35    c1.879,3.999,6.643,5.718,10.642,3.84c0.274-0.129,0.54-0.273,0.798-0.432c33.728-20.87,77.989-10.446,98.858,23.283    c5.421,8.76,8.893,18.585,10.182,28.805c0.563,4.382,4.572,7.478,8.954,6.915c0.878-0.113,1.732-0.371,2.526-0.763    c6.581-3.296,13.839-5.016,21.2-5.024c26.51,0,48,21.49,48,48C464.005,202.519,442.514,224.009,416.005,224.009z" fill="#FFFFFF"/>
	</g>
</g>
<g>
	<g>
		<path d="M120.005,376.009h-12.688l10.344-10.344c3.07-3.178,2.982-8.242-0.196-11.312c-3.1-2.994-8.015-2.994-11.116,0    l-10.344,10.344v-12.688c0-4.418-3.582-8-8-8s-8,3.582-8,8v12.688l-10.344-10.344c-3.178-3.07-8.242-2.982-11.312,0.196    c-2.995,3.1-2.995,8.016,0,11.116l10.344,10.344H56.005c-4.418,0-8,3.582-8,8s3.582,8,8,8h12.688l-10.344,10.344    c-3.178,3.07-3.266,8.134-0.196,11.312c3.07,3.178,8.134,3.266,11.312,0.196c0.067-0.064,0.132-0.13,0.196-0.196l10.344-10.344    v12.688c0,4.418,3.582,8,8,8s8-3.582,8-8v-12.688l10.344,10.344c3.178,3.07,8.242,2.982,11.312-0.196    c2.995-3.1,2.995-8.016,0-11.116l-10.344-10.344h12.688c4.418,0,8-3.582,8-8S124.423,376.009,120.005,376.009z" fill="#FFFFFF"/>
	</g>
</g>
<g>
	<g>
		<path d="M304.005,288.009h-12.688l10.344-10.344c3.07-3.178,2.982-8.242-0.196-11.312c-3.1-2.995-8.016-2.995-11.116,0    l-10.344,10.344v-12.688c0-4.418-3.582-8-8-8s-8,3.582-8,8v12.688l-10.344-10.344c-3.178-3.07-8.242-2.982-11.312,0.196    c-2.995,3.1-2.995,8.016,0,11.116l10.344,10.344h-12.688c-4.418,0-8,3.582-8,8s3.582,8,8,8h12.688l-10.344,10.344    c-3.178,3.07-3.266,8.134-0.196,11.312c3.07,3.178,8.134,3.266,11.312,0.196c0.066-0.064,0.132-0.13,0.196-0.196l10.344-10.344    v12.688c0,4.418,3.582,8,8,8s8-3.582,8-8v-12.688l10.344,10.344c3.178,3.07,8.242,2.982,11.312-0.196    c2.995-3.1,2.995-8.016,0-11.116l-10.344-10.344h12.688c4.418,0,8-3.582,8-8S308.423,288.009,304.005,288.009z" fill="#FFFFFF"/>
	</g>
</g>
<g>
	<g>
		<path d="M256.005,416.009h-12.688l10.344-10.344c3.07-3.178,2.982-8.242-0.196-11.312c-3.1-2.995-8.016-2.995-11.116,0    l-10.344,10.344v-12.688c0-4.418-3.582-8-8-8s-8,3.582-8,8v12.688l-10.344-10.344c-3.178-3.07-8.242-2.982-11.312,0.196    c-2.994,3.1-2.994,8.015,0,11.116l10.344,10.344h-12.688c-4.418,0-8,3.582-8,8s3.582,8,8,8h12.688l-10.344,10.344    c-3.178,3.069-3.266,8.134-0.196,11.312c3.069,3.178,8.134,3.266,11.312,0.196c0.067-0.064,0.132-0.13,0.196-0.196l10.344-10.344    v12.688c0,4.418,3.582,8,8,8s8-3.582,8-8v-12.688l10.344,10.344c3.178,3.07,8.242,2.982,11.312-0.196    c2.995-3.1,2.995-8.016,0-11.116l-10.344-10.344h12.688c4.418,0,8-3.582,8-8S260.423,416.009,256.005,416.009z" fill="#FFFFFF"/>
	</g>
</g>
<g>
	<g>
		<path d="M424.005,368.009h-12.688l10.344-10.344c3.07-3.178,2.982-8.242-0.196-11.312c-3.1-2.995-8.016-2.995-11.116,0    l-10.344,10.344v-12.688c0-4.418-3.582-8-8-8s-8,3.582-8,8v12.688l-10.344-10.344c-3.178-3.07-8.242-2.982-11.312,0.196    c-2.995,3.1-2.995,8.016,0,11.116l10.344,10.344h-12.688c-4.418,0-8,3.582-8,8s3.582,8,8,8h12.688l-10.344,10.344    c-3.178,3.07-3.266,8.134-0.196,11.312c3.07,3.178,8.134,3.266,11.312,0.196c0.066-0.064,0.132-0.13,0.196-0.196l10.344-10.344    v12.688c0,4.418,3.582,8,8,8s8-3.582,8-8v-12.688l10.344,10.344c3.178,3.07,8.242,2.982,11.312-0.196    c2.995-3.1,2.995-8.016,0-11.116l-10.344-10.344h12.688c4.418,0,8-3.582,8-8S428.423,368.009,424.005,368.009z" fill="#FFFFFF"/>
	</g>
</g>
<g>
	<g>
		<path d="M168.005,256.009c-4.418,0-8,3.582-8,8v32c0,4.418,3.582,8,8,8s8-3.582,8-8v-32    C176.005,259.591,172.423,256.009,168.005,256.009z" fill="#FFFFFF"/>
	</g>
</g>
<g>
	<g>
		<path d="M208.005,320.009c-4.418,0-8,3.582-8,8v32c0,4.418,3.582,8,8,8s8-3.582,8-8v-32    C216.005,323.591,212.423,320.009,208.005,320.009z" fill="#FFFFFF"/>
	</g>
</g>
<g>
	<g>
		<path d="M40.005,264.009c-4.418,0-8,3.582-8,8v32c0,4.418,3.582,8,8,8s8-3.582,8-8v-32    C48.005,267.591,44.423,264.009,40.005,264.009z" fill="#FFFFFF"/>
	</g>
</g>
<g>
	<g>
		<path d="M112.005,280.009c-4.418,0-8,3.582-8,8v32c0,4.418,3.582,8,8,8s8-3.582,8-8v-32    C120.005,283.591,116.423,280.009,112.005,280.009z" fill="#FFFFFF"/>
	</g>
</g>
<g>
	<g>
		<path d="M152.005,416.009c-4.418,0-8,3.582-8,8v32c0,4.418,3.582,8,8,8s8-3.582,8-8v-32    C160.005,419.591,156.423,416.009,152.005,416.009z" fill="#FFFFFF"/>
	</g>
</g>
<g>
	<g>
		<path d="M360.005,272.009c-4.418,0-8,3.582-8,8v32c0,4.418,3.582,8,8,8s8-3.582,8-8v-32    C368.005,275.591,364.423,272.009,360.005,272.009z" fill="#FFFFFF"/>
	</g>
</g>
<g>
	<g>
		<path d="M424.005,256.009c-4.418,0-8,3.582-8,8v32c0,4.418,3.582,8,8,8s8-3.582,8-8v-32    C432.005,259.591,428.423,256.009,424.005,256.009z" fill="#FFFFFF"/>
	</g>
</g>
<g>
	<g>
		<path d="M40.005,432.009c-4.418,0-8,3.582-8,8v32c0,4.418,3.582,8,8,8s8-3.582,8-8v-32    C48.005,435.591,44.423,432.009,40.005,432.009z" fill="#FFFFFF"/>
	</g>
</g>
<g>
	<g>
		<path d="M312.005,352.009c-4.418,0-8,3.582-8,8v32c0,4.418,3.582,8,8,8s8-3.582,8-8v-32    C320.005,355.591,316.423,352.009,312.005,352.009z" fill="#FFFFFF"/>
	</g>
</g>
<g>
	<g>
		<path d="M336.005,432.009c-4.418,0-8,3.582-8,8v32c0,4.418,3.582,8,8,8s8-3.582,8-8v-32    C344.005,435.591,340.423,432.009,336.005,432.009z" fill="#FFFFFF"/>
	</g>
</g>
<g>
	<g>
		<path d="M448.005,416.009c-4.418,0-8,3.582-8,8v32c0,4.418,3.582,8,8,8s8-3.582,8-8v-32    C456.005,419.591,452.423,416.009,448.005,416.009z" fill="#FFFFFF"/>
	</g>
</g>
<g>
</g>
<g>
</g>
<g>
</g>
<g>
</g>
<g>
</g>
<g>
</g>
<g>
</g>
<g>
</g>
<g>
</g>
<g>
</g>
<g>
</g>
<g>
</g>
<g>
</g>
<g>
</g>
<g>
</g>
</svg>
