<svg id="Layer_1" data-name="Layer 1" xmlns="http://www.w3.org/2000/svg" viewBox="0 0 416 416"><defs><style>.cls-1{fill:#E8EAF6;}</style></defs><title>clear</title><path class="cls-1" d="M208,96A112,112,0,1,0,320,208,112.14,112.14,0,0,0,208,96Zm0,192a80,80,0,1,1,80-80A80,80,0,0,1,208,288Zm0-224a16,16,0,0,0,16-16V16a16,16,0,0,0-32,0V48A16,16,0,0,0,208,64Zm0,288a16,16,0,0,0-16,16v32a16,16,0,0,0,32,0V368A16,16,0,0,0,208,352ZM332.44,106.17l22.63-22.62a16,16,0,0,0-22.62-22.62L309.81,83.54a16,16,0,1,0,22.63,22.62ZM83.56,309.83,60.94,332.46a16,16,0,0,0,22.63,22.62l22.63-22.62a16,16,0,1,0-22.63-22.62ZM64,208a16,16,0,0,0-16-16H16a16,16,0,0,0,0,32H48A16,16,0,0,0,64,208Zm336-16H368a16,16,0,0,0,0,32h32a16,16,0,0,0,0-32ZM83.54,106.17a16,16,0,1,0,22.63-22.62L83.54,60.92A16,16,0,0,0,60.92,83.54ZM332.46,309.81a16,16,0,0,0-22.62,22.63l22.63,22.63a16,16,0,0,0,22.62-22.62Z"/></svg>