<svg id="Layer_1" data-name="Layer 1" xmlns="http://www.w3.org/2000/svg" viewBox="0 0 512 406.83"><defs><style>.cls-1{fill:#E8EAF6;}</style></defs><title>cloudy</title><path class="cls-1" d="M512,134.83a89.25,89.25,0,0,0-89.17-89.15c-2.4,0-4.77.1-7.15.29a122.56,122.56,0,0,0-191.38,0c-2.37-.19-4.77-.29-7.19-.29A89.24,89.24,0,0,0,128,134.83a92.08,92.08,0,0,0,1.5,15c-.54.71-1.19,1.35-1.71,2.08A110.94,110.94,0,0,0,112,150.83a112,112,0,1,0,0,224,110.83,110.83,0,0,0,39.71-7.33,157.93,157.93,0,0,0,208.58,0A110.83,110.83,0,0,0,400,374.83a112.14,112.14,0,0,0,112-112c0-25.69-9-49.08-23.67-68A88.45,88.45,0,0,0,512,134.83Zm-112,208a79.51,79.51,0,0,1-45.94-14.67c-23.48,28.29-58.44,46.67-98.06,46.67s-74.58-18.37-98.06-46.67a80,80,0,1,1-15.5-139.27c.56-1.06,1.25-2,1.81-3a129.69,129.69,0,0,1,20.67-28,126.07,126.07,0,0,1,91.08-39c49.71,0,92.33,28.67,113.54,70.06a81.06,81.06,0,0,1,17.88-4.81L400,182.83a80,80,0,1,1,0,160Zm65.56-170.37A110.41,110.41,0,0,0,384.21,152a158.28,158.28,0,0,0-221.15-34.79A56.76,56.76,0,0,1,238.87,82C254.06,52.46,284.5,32,320,32s66,20.46,81.08,50a56.95,56.95,0,0,1,64.48,90.44Z"/></svg>