<svg id="Layer_1" data-name="Layer 1" xmlns="http://www.w3.org/2000/svg" viewBox="0 0 416 416"><defs><style>.cls-1{fill:#E8EAF6;}</style></defs><title>fog</title><path class="cls-1" d="M208,64a16,16,0,0,0,16-16V16a16,16,0,0,0-32,0V48A16,16,0,0,0,208,64Zm124.44,42.17,22.63-22.62a16,16,0,0,0-22.62-22.62L309.81,83.54a16,16,0,1,0,22.63,22.62ZM16,224H48a16,16,0,0,0,0-32H16a16,16,0,0,0,0,32Zm336-16a16,16,0,0,0,16,16h32a16,16,0,0,0,0-32H368A16,16,0,0,0,352,208ZM83.54,106.17a16,16,0,1,0,22.63-22.62L83.54,60.92A16,16,0,0,0,60.92,83.54ZM97.63,224h32a80,80,0,1,1,156.75,0h32A106.72,106.72,0,0,0,320,208a112,112,0,0,0-224,0A112.52,112.52,0,0,0,97.63,224ZM400,256H16a16,16,0,0,0,0,32H400a16,16,0,0,0,0-32Zm0,64H16a16,16,0,0,0,0,32H400a16,16,0,0,0,0-32Zm0,64H16a16,16,0,0,0,0,32H400a16,16,0,0,0,0-32Z"/></svg>