<?xml version="1.0" encoding="iso-8859-1"?>
<!-- Generator: Adobe Illustrator 18.0.0, SVG Export Plug-In . SVG Version: 6.00 Build 0)  -->
<!DOCTYPE svg PUBLIC "-//W3C//DTD SVG 1.1//EN" "http://www.w3.org/Graphics/SVG/1.1/DTD/svg11.dtd">
<svg xmlns="http://www.w3.org/2000/svg" xmlns:xlink="http://www.w3.org/1999/xlink" version="1.1" id="Capa_1" x="0px" y="0px" viewBox="0 0 213.555 213.555" style="enable-background:new 0 0 213.555 213.555;" xml:space="preserve" width="512px" height="512px">
<g>
	<path d="M103.72,46.588c4.142,0,7.5-3.357,7.5-7.5V15.299c0-4.143-3.357-7.5-7.5-7.5c-4.142,0-7.5,3.357-7.5,7.5v23.789   C96.22,43.231,99.578,46.588,103.72,46.588z" fill="#FFFFFF"/>
	<path d="M167.668,73.069c1.919,0,3.838-0.732,5.302-2.195l16.824-16.817c2.93-2.929,2.931-7.678,0.003-10.606   c-2.93-2.931-7.679-2.93-10.606-0.003l-16.824,16.817c-2.93,2.929-2.931,7.678-0.003,10.606   C163.829,72.336,165.749,73.069,167.668,73.069z" fill="#FFFFFF"/>
	<path d="M34.485,70.871c1.464,1.465,3.384,2.197,5.303,2.197c1.919,0,3.839-0.732,5.303-2.196c2.929-2.929,2.929-7.678,0-10.606   L28.275,43.448c-2.929-2.93-7.678-2.929-10.606-0.001c-2.929,2.929-2.929,7.678,0,10.606L34.485,70.871z" fill="#FFFFFF"/>
	<path d="M21.093,137.02h179.929c4.143,0,7.5-3.357,7.5-7.5c0-4.143-3.357-7.5-7.5-7.5h-33.491   c-3.729-31.907-30.911-56.754-63.803-56.754c-32.889,0-60.069,24.847-63.797,56.754H21.093c-4.142,0-7.5,3.357-7.5,7.5   C13.593,133.662,16.951,137.02,21.093,137.02z M103.728,80.266c24.61,0,45.062,18.143,48.685,41.754H55.049   C58.671,98.408,79.121,80.266,103.728,80.266z" fill="#FFFFFF"/>
	<path d="M184.651,163.887c0-4.143-3.357-7.5-7.5-7.5H7.5c-4.142,0-7.5,3.357-7.5,7.5c0,4.143,3.358,7.5,7.5,7.5h169.651   C181.293,171.387,184.651,168.03,184.651,163.887z" fill="#FFFFFF"/>
	<path d="M206.055,190.756H36.696c-4.142,0-7.5,3.357-7.5,7.5c0,4.143,3.358,7.5,7.5,7.5h169.359c4.143,0,7.5-3.357,7.5-7.5   C213.555,194.113,210.198,190.756,206.055,190.756z" fill="#FFFFFF"/>
</g>
<g>
</g>
<g>
</g>
<g>
</g>
<g>
</g>
<g>
</g>
<g>
</g>
<g>
</g>
<g>
</g>
<g>
</g>
<g>
</g>
<g>
</g>
<g>
</g>
<g>
</g>
<g>
</g>
<g>
</g>
</svg>
