<svg id="Layer_1" data-name="Layer 1" xmlns="http://www.w3.org/2000/svg" viewBox="0 0 512 512"><defs><style>.cls-1{fill:#E8EAF6;}</style></defs><title>partlycloudy</title><path class="cls-1" d="M208,64a16,16,0,0,0,16-16V16a16,16,0,0,0-32,0V48A16,16,0,0,0,208,64Zm124.44,42.17,22.63-22.62a16,16,0,0,0-22.62-22.62L309.81,83.54a16,16,0,0,0,22.63,22.62ZM16,224H48a16,16,0,0,0,0-32H16a16,16,0,0,0,0,32Zm336-16a16,16,0,0,0,16,16h32a16,16,0,0,0,0-32H368A16,16,0,0,0,352,208ZM83.54,106.17a16,16,0,0,0,22.63-22.62L83.54,60.92A16,16,0,0,0,60.92,83.54ZM400,256a111,111,0,0,0-15.79,1.13,159.28,159.28,0,0,0-64.46-51.5C318.46,145,268.94,96,208,96A112.14,112.14,0,0,0,96,208a110,110,0,0,0,11.5,48.44C47.88,258.88,0,307.81,0,368A112.14,112.14,0,0,0,112,480a110.83,110.83,0,0,0,39.71-7.33,157.93,157.93,0,0,0,208.58,0A110.83,110.83,0,0,0,400,480a112,112,0,0,0,0-224ZM208,128a79.82,79.82,0,0,1,78.71,67.25A156.57,156.57,0,0,0,256,192a158.39,158.39,0,0,0-118.37,53.25A79,79,0,0,1,128,208,80,80,0,0,1,208,128ZM400,448a79.51,79.51,0,0,1-45.94-14.67C330.58,461.63,295.62,480,256,480s-74.58-18.37-98.06-46.67A79.94,79.94,0,1,1,112,288a77.68,77.68,0,0,1,22.13,3.54,72.53,72.53,0,0,1,8.31,2.52,129.91,129.91,0,0,1,16-23.75C181.79,242.19,216.56,224,256,224a125.2,125.2,0,0,1,29.25,3.71A122.15,122.15,0,0,1,315.08,239a129.21,129.21,0,0,1,54.46,55.06A80,80,0,1,1,400,448Z"/></svg>