<?xml version="1.0" encoding="iso-8859-1"?>
<!-- Generator: Adobe Illustrator 19.0.0, SVG Export Plug-In . SVG Version: 6.00 Build 0)  -->
<svg xmlns="http://www.w3.org/2000/svg" xmlns:xlink="http://www.w3.org/1999/xlink" version="1.1" id="Capa_1" x="0px" y="0px" viewBox="0 0 369.871 369.871" style="enable-background:new 0 0 369.871 369.871;" xml:space="preserve" width="512px" height="512px">
<g>
	<g id="Dibujo_16_">
		<g>
			<path d="M295.653,219.091c5.217-10.577,7.972-22.198,7.972-34.156c0-42.619-34.669-77.288-77.288-77.288     c-25.4,0-49.105,12.592-63.464,33.239c-0.927-0.028-1.844-0.116-2.777-0.116c-42.309,0-78.497,27.669-90.046,67.262     c-3.185-0.58-6.525-1.016-9.324-1.016C27.238,207.018,0,234.262,0,267.744s27.238,60.726,60.726,60.726h198.74     c33.482,0,60.726-27.244,60.726-60.726C320.192,247.826,310.509,230.171,295.653,219.091z M226.337,129.73     c30.44,0,55.205,24.765,55.205,55.205c0,8.546-1.987,16.838-5.719,24.384c-5.217-1.463-10.688-2.302-16.357-2.302     c-2.804,0-6.139,0.436-9.33,1.016c-8.877-30.424-32.317-53.743-61.885-62.94C198.397,135.416,211.967,129.73,226.337,129.73z      M259.466,306.388H60.726c-21.304,0-38.644-17.34-38.644-38.644S39.422,229.1,60.726,229.1c1.529,0,3.991,0.375,6.586,0.894     v10.147c0,6.095,4.946,11.041,11.041,11.041s11.041-4.946,11.041-11.041V222.37c5.924-34.52,35.53-59.517,70.702-59.517     c35.177,0,64.789,25.008,70.702,59.545v17.743c0,6.095,4.946,11.041,11.041,11.041s11.041-4.946,11.041-11.041V230     c2.6-0.519,5.073-0.9,6.586-0.9c21.304,0,38.644,17.34,38.644,38.644S280.77,306.388,259.466,306.388z" fill="#FFFFFF"/>
			<path d="M226.337,85.566c6.095,0,11.041-4.946,11.041-11.041V52.442c0-6.095-4.946-11.041-11.041-11.041     c-6.1,0-11.041,4.946-11.041,11.041v22.082C215.296,80.619,220.237,85.566,226.337,85.566z" fill="#FFFFFF"/>
			<path d="M358.83,173.895h-22.082c-6.1,0-11.041,4.946-11.041,11.041c0,6.095,4.941,11.041,11.041,11.041h22.082     c6.095,0,11.041-4.946,11.041-11.041C369.871,178.841,364.925,173.895,358.83,173.895z" fill="#FFFFFF"/>
			<path d="M304.414,117.9c2.827,0,5.648-1.076,7.806-3.235l15.612-15.612c4.312-4.312,4.312-11.301,0-15.612     c-4.312-4.312-11.301-4.312-15.612,0l-15.612,15.612c-4.312,4.312-4.312,11.301,0,15.612     C298.761,116.823,301.588,117.9,304.414,117.9z" fill="#FFFFFF"/>
			<path d="M140.454,114.665c2.159,2.159,4.98,3.235,7.806,3.235c2.827,0,5.648-1.076,7.806-3.235     c4.312-4.312,4.312-11.301,0-15.612L140.454,83.44c-4.312-4.312-11.301-4.312-15.612,0c-4.312,4.312-4.312,11.301,0,15.612     L140.454,114.665z" fill="#FFFFFF"/>
		</g>
	</g>
</g>
<g>
</g>
<g>
</g>
<g>
</g>
<g>
</g>
<g>
</g>
<g>
</g>
<g>
</g>
<g>
</g>
<g>
</g>
<g>
</g>
<g>
</g>
<g>
</g>
<g>
</g>
<g>
</g>
<g>
</g>
</svg>
