<svg id="Layer_1" data-name="Layer 1" xmlns="http://www.w3.org/2000/svg" viewBox="0 0 512 512"><defs><style>.cls-1{fill:#E8EAF6;}</style></defs><title>rain</title><path class="cls-1" d="M400,64a111,111,0,0,0-15.79,1.13,158.76,158.76,0,0,0-256.42,0A111,111,0,0,0,112,64a112,112,0,0,0,0,224,110.83,110.83,0,0,0,39.71-7.33,157.93,157.93,0,0,0,208.58,0A110.83,110.83,0,0,0,400,288a112,112,0,0,0,0-224Zm0,192a79.51,79.51,0,0,1-45.94-14.67C330.58,269.63,295.62,288,256,288s-74.58-18.37-98.06-46.67a80,80,0,1,1-15.5-139.25C163.67,60.67,206.29,32,256,32s92.33,28.67,113.54,70.08A80,80,0,1,1,400,256ZM225,480a32,32,0,0,0,64,0c0-17.69-32-64-32-64S225,462.31,225,480Zm127-32a32,32,0,0,0,64,0c0-17.69-32-64-32-64S352,430.31,352,448ZM96,384a32,32,0,0,0,64,0c0-17.69-32-64-32-64S96,366.31,96,384Z"/></svg>