<svg id="Layer_1" data-name="Layer 1" xmlns="http://www.w3.org/2000/svg" viewBox="0 0 512 448"><defs><style>.cls-1{fill:#E8EAF6;}</style></defs><title>sleet</title><path class="cls-1" d="M417,38.79a127.77,127.77,0,0,0-183.39,0,99.68,99.68,0,1,0,21.94,197.75,127.18,127.18,0,0,0,139.5,0A99.68,99.68,0,1,0,417,38.79ZM412.38,206a66,66,0,0,1-24-4.46,95.39,95.39,0,0,1-126.06,0,66.26,66.26,0,0,1-24,4.46,67.69,67.69,0,1,1,0-135.38,69.13,69.13,0,0,1,9.52.69,96,96,0,0,1,155,0,68.79,68.79,0,0,1,9.56-.69,67.69,67.69,0,0,1,0,135.38ZM144,224.69H16a16,16,0,1,0,0,32H144a16,16,0,1,0,0-32Zm-128-32H80a16,16,0,1,0,0-32H16a16,16,0,0,0,0,32Zm32-64h64a16,16,0,1,0,0-32H48a16,16,0,1,0,0,32ZM224,352a32,32,0,0,0,64,0c0-17.69-32-64-32-64S224,334.31,224,352Zm128,64a32,32,0,0,0,64,0c0-17.69-32-64-32-64S352,398.31,352,416Z"/></svg>