<svg id="Layer_1" data-name="Layer 1" xmlns="http://www.w3.org/2000/svg" viewBox="0 0 512 512"><defs><style>.cls-1{fill:#E8EAF6;}</style></defs><title>snow</title><path class="cls-1" d="M326,443.69l-18-10.38a56,56,0,0,0,1-9.62,52.11,52.11,0,0,0-1-9.62l18-10.4a17.67,17.67,0,0,0-17.67-30.6l-18.19,10.5a53.18,53.18,0,0,0-16.5-9.6v-20.9a17.68,17.68,0,1,0-35.35,0v20.88a52.93,52.93,0,0,0-16.52,9.63l-18.15-10.5A17.67,17.67,0,1,0,186,403.67L204,414a48.88,48.88,0,0,0,0,19.27l-18,10.38a17.67,17.67,0,1,0,17.63,30.63l18.17-10.44a53,53,0,0,0,16.54,9.56v20.94a17.68,17.68,0,0,0,35.35,0V473.44a51.7,51.7,0,0,0,16.52-9.62l18.17,10.5A17.68,17.68,0,1,0,326,443.69Zm-70-2.31a17.67,17.67,0,1,1,17.67-17.69A17.71,17.71,0,0,1,256,441.38Zm218.17-45.12L462.08,393a30.2,30.2,0,0,0-2.9-11l8.77-8.77a10.5,10.5,0,0,0-14.83-14.85l-8.79,8.75a31.74,31.74,0,0,0-11-2.87l-3.21-12.06a10.5,10.5,0,1,0-20.29,5.44l3.21,11.9a33.92,33.92,0,0,0-4.5,3.67,36.12,36.12,0,0,0-3.63,4.46l-11.9-3.21a10.52,10.52,0,0,0-5.48,20.31l12,3.23a31.49,31.49,0,0,0,3,11l-8.81,8.81a10.5,10.5,0,0,0,14.83,14.85l8.83-8.83a29.81,29.81,0,0,0,11,3l3.17,12a10.53,10.53,0,1,0,20.33-5.48l-3.21-11.9a37.33,37.33,0,0,0,4.46-3.62,34.74,34.74,0,0,0,3.62-4.48l11.92,3.21a10.51,10.51,0,0,0,5.46-20.29Zm-35.85,6.69a10.51,10.51,0,1,1,0-14.85A10.51,10.51,0,0,1,438.31,402.94ZM118.94,342.5l-11.87,3.19a39.55,39.55,0,0,0-3.65-4.44,33.09,33.09,0,0,0-4.48-3.62l3.19-11.94a10.48,10.48,0,1,0-20.25-5.44l-3.25,12.06a31.31,31.31,0,0,0-10.94,2.9l-8.81-8.77A10.5,10.5,0,1,0,44,341.29l8.77,8.77a31.32,31.32,0,0,0-2.9,11l-12,3.21a10.5,10.5,0,1,0,5.44,20.29l11.88-3.23a26.78,26.78,0,0,0,3.69,4.5,27.92,27.92,0,0,0,4.44,3.63l-3.19,11.9a10.49,10.49,0,1,0,20.25,5.48l3.25-12a31.36,31.36,0,0,0,11-2.94l8.79,8.79a10.5,10.5,0,0,0,14.83-14.85L109.44,377a29.47,29.47,0,0,0,2.94-11l12.06-3.19a10.52,10.52,0,0,0-5.5-20.31ZM88.56,371a10.5,10.5,0,1,1,0-14.83A10.52,10.52,0,0,1,88.56,371ZM512,176A112.14,112.14,0,0,0,400,64a111,111,0,0,0-15.79,1.13,158.76,158.76,0,0,0-256.42,0A111,111,0,0,0,112,64a112,112,0,0,0,0,224,110.83,110.83,0,0,0,39.71-7.33,157.93,157.93,0,0,0,208.58,0A110.83,110.83,0,0,0,400,288,112.14,112.14,0,0,0,512,176ZM354.06,241.33C330.58,269.63,295.62,288,256,288s-74.58-18.37-98.06-46.67a80,80,0,1,1-15.5-139.25C163.67,60.67,206.29,32,256,32s92.33,28.67,113.54,70.08a80,80,0,1,1-15.48,139.25Z"/></svg>