<?xml version="1.0" encoding="iso-8859-1"?>
<!-- Generator: Adobe Illustrator 19.0.0, SVG Export Plug-In . SVG Version: 6.00 Build 0)  -->
<svg version="1.1" id="Layer_1" xmlns="http://www.w3.org/2000/svg" xmlns:xlink="http://www.w3.org/1999/xlink" x="0px" y="0px"
	 viewBox="0 0 504.125 504.125" style="enable-background:new 0 0 504.125 504.125;" xml:space="preserve">
<circle style="fill:#FFB133;" cx="252.064" cy="252.061" r="178.499"/>
<path style="fill:#F49C00;" d="M430.562,252.061c0,98.572-79.919,178.491-178.499,178.491S73.572,350.624,73.572,252.061
	c0-98.588,79.911-144.4,178.491-144.4S430.562,153.473,430.562,252.061z"/>
<g>
	<path style="fill:#F28A00;" d="M430.562,252.061c0,98.572-79.919,178.491-178.499,178.491S73.572,350.624,73.572,252.061"/>
	<path style="fill:#F28A00;" d="M391.879,118.87c-1.229-1.229-2.017-2.938-2.017-4.852c0-10.374,4.049-20.149,11.398-27.498
		c7.341-7.349,17.109-11.398,27.506-11.398c3.781,0.016,6.861,3.088,6.861,6.869c0,3.805-3.08,6.861-6.861,6.861
		c-6.735,0-13.044,2.623-17.802,7.381c-4.758,4.758-7.373,11.059-7.373,17.794c0,3.789-3.088,6.869-6.877,6.869
		C394.841,120.886,393.123,120.122,391.879,118.87z"/>
	<path style="fill:#F28A00;" d="M112.248,385.228c1.237,1.252,2.016,2.977,2.016,4.86c0.016,10.382-4.049,20.181-11.382,27.49
		c-7.357,7.373-17.124,11.398-27.506,11.398c-3.797,0-6.869-3.064-6.869-6.877c0-3.773,3.072-6.861,6.869-6.861
		c6.727,0,13.028-2.599,17.802-7.373c4.726-4.742,7.357-11.051,7.357-17.786c0-3.797,3.08-6.861,6.877-6.861
		C109.286,383.227,111.004,384.007,112.248,385.228z"/>
	<path style="fill:#F28A00;" d="M256.758,59.029c-1.764,0-3.505-0.677-4.852-2.024c-7.357-7.333-11.398-17.109-11.398-27.483
		c0-10.398,4.049-20.181,11.398-27.506c2.686-2.678,7.026-2.678,9.696,0s2.678,7.026,0,9.704
		c-4.742,4.758-7.357,11.075-7.357,17.802c0,6.711,2.615,13.013,7.357,17.786c2.678,2.678,2.678,7.018,0,9.696
		C260.271,58.351,258.523,59.029,256.758,59.029z"/>
	<path style="fill:#F28A00;" d="M247.361,445.092c1.764,0,3.521,0.67,4.852,2.009c7.357,7.326,11.398,17.109,11.398,27.49
		c0,10.398-4.049,20.157-11.398,27.506c-2.678,2.694-7.018,2.694-9.696,0c-2.678-2.678-2.678-7.018,0-9.689
		c4.758-4.781,7.365-11.091,7.365-17.818c0-6.711-2.607-13.036-7.365-17.794c-2.678-2.686-2.678-7.026,0-9.697
		C243.864,445.762,245.604,445.092,247.361,445.092z"/>
	<path style="fill:#F28A00;" d="M445.095,256.732c0-1.741,0.662-3.482,2.016-4.829c7.341-7.357,17.117-11.398,27.49-11.398
		c10.398,0,20.173,4.049,27.514,11.398c2.67,2.686,2.686,7.034,0,9.704c-2.694,2.678-7.026,2.678-9.696,0
		c-4.766-4.766-11.083-7.373-17.818-7.373c-6.711,0-13.028,2.599-17.786,7.373c-2.694,2.678-7.026,2.678-9.704,0
		C445.757,260.268,445.111,258.52,445.095,256.732z"/>
	<path style="fill:#F28A00;" d="M59.016,247.366c0,1.757-0.662,3.521-2.001,4.86c-7.333,7.357-17.109,11.382-27.475,11.382
		c-10.421,0-20.181-4.033-27.514-11.382c-2.702-2.694-2.702-7.034,0-9.712c2.662-2.686,7.01-2.686,9.696,0
		c4.766,4.758,11.059,7.381,17.818,7.381c6.695,0,13.021-2.615,17.762-7.381c2.67-2.686,7.026-2.686,9.712,0
		C58.354,243.861,59.016,245.625,59.016,247.366z"/>
	<path style="fill:#F28A00;" d="M385.239,391.876c1.237-1.252,2.946-2.009,4.821-2.009c10.398-0.016,20.181,4.049,27.53,11.374
		c7.357,7.373,11.398,17.148,11.398,27.522c-0.024,3.773-3.08,6.853-6.861,6.853c-3.805,0-6.877-3.056-6.877-6.853
		c0.008-6.735-2.615-13.028-7.381-17.81c-4.75-4.758-11.059-7.381-17.818-7.373c-3.773,0-6.845-3.072-6.845-6.861
		C383.23,394.838,384.002,393.12,385.239,391.876z"/>
	<path style="fill:#F28A00;" d="M118.873,112.245c-1.229,1.229-2.962,2.016-4.844,2.016c-10.374,0.032-20.181-4.041-27.483-11.374
		c-7.389-7.365-11.414-17.117-11.414-27.514c0-3.812,3.08-6.861,6.869-6.861c3.781,0,6.869,3.048,6.869,6.861
		c0,6.727,2.615,13.028,7.381,17.818c4.75,4.742,11.051,7.357,17.786,7.341c3.781,0,6.869,3.096,6.869,6.861
		C120.897,109.291,120.109,111.001,118.873,112.245z"/>
	<path style="fill:#F28A00;" d="M159.612,82.557c-1.512,0.859-3.379,1.15-5.23,0.67c-10.019-2.686-18.424-9.121-23.599-18.109
		c-5.191-9.003-6.593-19.495-3.883-29.523c0.961-3.679,4.742-5.845,8.397-4.86c3.679,0.969,5.837,4.758,4.844,8.397
		c-1.741,6.522-0.819,13.304,2.521,19.125c3.356,5.797,8.767,9.972,15.273,11.713c3.663,0.969,5.813,4.758,4.868,8.389
		C162.314,80.194,161.109,81.675,159.612,82.557z"/>
	<path style="fill:#F28A00;" d="M344.507,421.58c1.505-0.874,3.379-1.182,5.215-0.67c10.012,2.655,18.416,9.106,23.599,18.093
		c5.199,9.019,6.593,19.503,3.915,29.531c-1.008,3.671-4.781,5.845-8.436,4.844c-3.631-0.992-5.829-4.742-4.844-8.413
		c1.749-6.498,0.827-13.273-2.513-19.094c-3.363-5.813-8.775-9.972-15.265-11.705c-3.686-0.969-5.853-4.758-4.884-8.405
		C341.813,423.911,342.995,422.454,344.507,421.58z"/>
	<path style="fill:#F28A00;" d="M421.567,159.593c-0.851-1.489-1.158-3.356-0.67-5.199c2.686-10.012,9.121-18.424,18.125-23.615
		c9.011-5.199,19.464-6.569,29.507-3.891c3.663,1.016,5.837,4.758,4.868,8.413c-1.008,3.671-4.758,5.845-8.42,4.844
		c-6.491-1.741-13.28-0.827-19.078,2.521c-5.853,3.363-10.012,8.775-11.752,15.289c-0.969,3.679-4.726,5.845-8.397,4.844
		C423.891,162.335,422.481,161.129,421.567,159.593z"/>
	<path style="fill:#F28A00;" d="M82.544,344.536c0.89,1.497,1.15,3.371,0.67,5.199c-2.662,10.019-9.129,18.432-18.07,23.599
		c-9.043,5.207-19.503,6.585-29.57,3.875c-3.663-0.969-5.829-4.726-4.813-8.381c0.969-3.663,4.71-5.845,8.389-4.86
		c6.491,1.757,13.28,0.859,19.117-2.521c5.797-3.332,9.956-8.751,11.689-15.265c0.969-3.663,4.726-5.845,8.428-4.86
		C80.213,341.826,81.646,343.015,82.544,344.536z"/>
	<path style="fill:#F28A00;" d="M437.297,306.553c0.433-1.686,1.56-3.222,3.198-4.151c8.988-5.207,19.472-6.585,29.523-3.899
		c10.027,2.71,18.432,9.137,23.599,18.125c1.875,3.285,0.803,7.491-2.513,9.381c-3.277,1.906-7.452,0.772-9.358-2.513
		c-3.356-5.829-8.767-9.972-15.281-11.729c-6.491-1.741-13.28-0.866-19.094,2.528c-3.316,1.883-7.483,0.772-9.381-2.521
		C437.045,310.129,436.848,308.239,437.297,306.553z"/>
	<path style="fill:#F28A00;" d="M66.798,197.568c-0.433,1.694-1.552,3.222-3.182,4.183c-8.995,5.215-19.511,6.585-29.483,3.883
		c-10.075-2.686-18.456-9.114-23.654-18.133c-1.898-3.293-0.772-7.475,2.521-9.366c3.277-1.89,7.459-0.803,9.381,2.505
		c3.356,5.821,8.743,9.988,15.289,11.729c6.459,1.741,13.249,0.851,19.062-2.521c3.277-1.898,7.475-0.772,9.358,2.513
		C67.066,194.008,67.247,195.874,66.798,197.568z"/>
</g>
<path id="SVGCleanerId_0" style="fill:#F28A00;" d="M87.215,151.504c-0.866,1.504-2.339,2.678-4.167,3.182
	c-10.019,2.694-20.512,1.315-29.499-3.875c-9.011-5.199-15.447-13.596-18.133-23.631c-1-3.663,1.182-7.428,4.829-8.397
	c3.71-0.992,7.444,1.197,8.413,4.844c1.757,6.506,5.947,11.934,11.76,15.289c5.782,3.348,12.587,4.246,19.102,2.505
	c3.639-0.969,7.389,1.205,8.405,4.844C88.405,148.085,88.097,149.968,87.215,151.504z"/>
<path id="SVGCleanerId_1" style="fill:#F28A00;" d="M416.865,352.641c0.874-1.497,2.363-2.71,4.183-3.167
	c10.027-2.741,20.512-1.331,29.491,3.86c9.027,5.199,15.462,13.596,18.148,23.615c0.992,3.679-1.182,7.459-4.868,8.413
	c-3.647,0.953-7.412-1.182-8.381-4.86c-1.788-6.498-5.955-11.926-11.752-15.289c-5.805-3.356-12.603-4.246-19.094-2.521
	c-3.647,1.016-7.396-1.166-8.413-4.813C415.691,356.028,415.998,354.161,416.865,352.641z"/>
<path id="SVGCleanerId_2" style="fill:#F28A00;" d="M352.62,87.244c-1.505-0.859-2.694-2.324-3.159-4.167
	c-2.718-10.012-1.339-20.512,3.899-29.507c5.191-9.019,13.556-15.431,23.568-18.133c3.694-0.969,7.428,1.189,8.428,4.844
	c0.937,3.702-1.197,7.444-4.852,8.413c-6.498,1.733-11.934,5.908-15.281,11.729c-3.387,5.813-4.293,12.603-2.513,19.109
	c0.977,3.663-1.174,7.428-4.852,8.413C356,88.441,354.172,88.102,352.62,87.244z"/>
<path id="SVGCleanerId_3" style="fill:#F28A00;" d="M151.483,416.901c1.497,0.859,2.686,2.355,3.159,4.167
	c2.733,10.012,1.339,20.519-3.86,29.475c-5.215,9.043-13.572,15.462-23.615,18.156c-3.679,0.977-7.436-1.166-8.405-4.86
	c-0.992-3.655,1.182-7.42,4.86-8.389c6.491-1.749,11.934-5.9,15.305-11.745c3.332-5.797,4.238-12.587,2.465-19.094
	c-0.961-3.647,1.166-7.389,4.884-8.397C148.104,415.735,149.955,416.042,151.483,416.901z"/>
<path id="SVGCleanerId_4" style="fill:#F28A00;" d="M439.715,206.642c-0.449-1.686-0.268-3.568,0.685-5.199
	c5.183-8.988,13.588-15.431,23.631-18.141c10.027-2.662,20.519-1.292,29.507,3.907c3.245,1.89,4.427,6.073,2.473,9.381
	c-1.859,3.277-6.049,4.395-9.35,2.489c-5.813-3.387-12.579-4.23-19.086-2.521c-6.498,1.757-11.941,5.892-15.305,11.752
	c-1.883,3.277-6.073,4.395-9.374,2.489C441.267,209.872,440.172,208.336,439.715,206.642z"/>
<path id="SVGCleanerId_5" style="fill:#F28A00;" d="M64.388,297.503c0.449,1.686,0.236,3.568-0.693,5.215
	c-5.183,9.003-13.603,15.455-23.576,18.109c-10.082,2.725-20.543,1.323-29.562-3.875c-3.293-1.906-4.419-6.073-2.473-9.366
	c1.867-3.293,6.049-4.427,9.381-2.536c5.782,3.387,12.54,4.293,19.078,2.521c6.459-1.709,11.926-5.876,15.25-11.721
	c1.89-3.269,6.105-4.403,9.381-2.513C62.836,294.289,63.9,295.817,64.388,297.503z"/>
<g>
	<path id="SVGCleanerId_0_1_" style="fill:#F28A00;" d="M87.215,151.504c-0.866,1.504-2.339,2.678-4.167,3.182
		c-10.019,2.694-20.512,1.315-29.499-3.875c-9.011-5.199-15.447-13.596-18.133-23.631c-1-3.663,1.182-7.428,4.829-8.397
		c3.71-0.992,7.444,1.197,8.413,4.844c1.757,6.506,5.947,11.934,11.76,15.289c5.782,3.348,12.587,4.246,19.102,2.505
		c3.639-0.969,7.389,1.205,8.405,4.844C88.405,148.085,88.097,149.968,87.215,151.504z"/>
</g>
<g>
	<path id="SVGCleanerId_1_1_" style="fill:#F28A00;" d="M416.865,352.641c0.874-1.497,2.363-2.71,4.183-3.167
		c10.027-2.741,20.512-1.331,29.491,3.86c9.027,5.199,15.462,13.596,18.148,23.615c0.992,3.679-1.182,7.459-4.868,8.413
		c-3.647,0.953-7.412-1.182-8.381-4.86c-1.788-6.498-5.955-11.926-11.752-15.289c-5.805-3.356-12.603-4.246-19.094-2.521
		c-3.647,1.016-7.396-1.166-8.413-4.813C415.691,356.028,415.998,354.161,416.865,352.641z"/>
</g>
<g>
	<path id="SVGCleanerId_2_1_" style="fill:#F28A00;" d="M352.62,87.244c-1.505-0.859-2.694-2.324-3.159-4.167
		c-2.718-10.012-1.339-20.512,3.899-29.507c5.191-9.019,13.556-15.431,23.568-18.133c3.694-0.969,7.428,1.189,8.428,4.844
		c0.937,3.702-1.197,7.444-4.852,8.413c-6.498,1.733-11.934,5.908-15.281,11.729c-3.387,5.813-4.293,12.603-2.513,19.109
		c0.977,3.663-1.174,7.428-4.852,8.413C356,88.441,354.172,88.102,352.62,87.244z"/>
</g>
<g>
	<path id="SVGCleanerId_3_1_" style="fill:#F28A00;" d="M151.483,416.901c1.497,0.859,2.686,2.355,3.159,4.167
		c2.733,10.012,1.339,20.519-3.86,29.475c-5.215,9.043-13.572,15.462-23.615,18.156c-3.679,0.977-7.436-1.166-8.405-4.86
		c-0.992-3.655,1.182-7.42,4.86-8.389c6.491-1.749,11.934-5.9,15.305-11.745c3.332-5.797,4.238-12.587,2.465-19.094
		c-0.961-3.647,1.166-7.389,4.884-8.397C148.104,415.735,149.955,416.042,151.483,416.901z"/>
</g>
<g>
	<path id="SVGCleanerId_4_1_" style="fill:#F28A00;" d="M439.715,206.642c-0.449-1.686-0.268-3.568,0.685-5.199
		c5.183-8.988,13.588-15.431,23.631-18.141c10.027-2.662,20.519-1.292,29.507,3.907c3.245,1.89,4.427,6.073,2.473,9.381
		c-1.859,3.277-6.049,4.395-9.35,2.489c-5.813-3.387-12.579-4.23-19.086-2.521c-6.498,1.757-11.941,5.892-15.305,11.752
		c-1.883,3.277-6.073,4.395-9.374,2.489C441.267,209.872,440.172,208.336,439.715,206.642z"/>
</g>
<g>
	<path id="SVGCleanerId_5_1_" style="fill:#F28A00;" d="M64.388,297.503c0.449,1.686,0.236,3.568-0.693,5.215
		c-5.183,9.003-13.603,15.455-23.576,18.109c-10.082,2.725-20.543,1.323-29.562-3.875c-3.293-1.906-4.419-6.073-2.473-9.366
		c1.867-3.293,6.049-4.427,9.381-2.536c5.782,3.387,12.54,4.293,19.078,2.521c6.459-1.709,11.926-5.876,15.25-11.721
		c1.89-3.269,6.105-4.403,9.381-2.513C62.836,294.289,63.9,295.817,64.388,297.503z"/>
</g>
<g>
	<path style="fill:#F28A00;" d="M82.568,344.551c0.859,1.504,1.126,3.371,0.638,5.23c-2.686,10.012-9.129,18.408-18.101,23.583
		c-9.019,5.199-19.472,6.585-29.538,3.907c-3.663-0.985-5.813-4.766-4.829-8.397c0.985-3.71,4.726-5.845,8.381-4.876
		c6.514,1.757,13.296,0.827,19.117-2.521c5.797-3.348,9.98-8.759,11.713-15.273c0.969-3.639,4.758-5.797,8.428-4.892
		C80.213,341.826,81.678,343.015,82.568,344.551z"/>
	<path style="fill:#F28A00;" d="M421.567,159.641c-0.851-1.512-1.182-3.403-0.638-5.215c2.655-10.043,9.114-18.432,18.062-23.599
		c9.019-5.207,19.495-6.585,29.538-3.907c3.663,0.985,5.837,4.758,4.844,8.413c-0.985,3.639-4.742,5.845-8.397,4.813
		c-6.538-1.694-13.296-0.788-19.109,2.552c-5.821,3.356-9.988,8.799-11.721,15.265c-0.937,3.655-4.726,5.829-8.397,4.892
		C423.891,162.35,422.481,161.137,421.567,159.641z"/>
	<path style="fill:#F28A00;" d="M159.588,82.596c-1.489,0.835-3.356,1.15-5.175,0.638c-10.051-2.655-18.456-9.098-23.631-18.117
		c-5.191-9.027-6.593-19.464-3.915-29.507c1.032-3.655,4.766-5.829,8.428-4.876c3.679,1.048,5.837,4.781,4.844,8.428
		c-1.741,6.491-0.819,13.28,2.536,19.094c3.34,5.829,8.751,10.012,15.265,11.737c3.686,0.985,5.853,4.734,4.868,8.413
		C162.314,80.257,161.109,81.683,159.588,82.596z"/>
	<path style="fill:#F28A00;" d="M344.507,421.603c1.505-0.874,3.379-1.158,5.215-0.67c10.043,2.662,18.448,9.09,23.599,18.085
		c5.199,9.027,6.593,19.503,3.875,29.515c-0.969,3.679-4.718,5.876-8.397,4.86c-3.631-0.953-5.829-4.726-4.844-8.381
		c1.78-6.506,0.89-13.296-2.481-19.157c-3.363-5.774-8.806-9.949-15.289-11.674c-3.655-0.977-5.853-4.71-4.868-8.42
		C341.813,423.951,343.018,422.486,344.507,421.603z"/>
	<path style="fill:#F28A00;" d="M306.572,66.843c-1.725-0.433-3.245-1.536-4.159-3.182c-5.23-9.003-6.593-19.495-3.915-29.538
		c2.71-10.012,9.121-18.424,18.141-23.599c3.277-1.859,7.483-0.788,9.381,2.536c1.89,3.261,0.756,7.444-2.521,9.342
		c-5.845,3.363-9.988,8.775-11.745,15.289c-1.725,6.506-0.859,13.273,2.536,19.102c1.875,3.308,0.756,7.467-2.544,9.381
		C310.109,67.103,308.226,67.284,306.572,66.843z"/>
	<path style="fill:#F28A00;" d="M197.587,437.334c1.662,0.449,3.182,1.568,4.183,3.198c5.167,9.003,6.538,19.511,3.86,29.46
		c-2.694,10.106-9.121,18.479-18.172,23.662c-3.253,1.922-7.436,0.796-9.326-2.521c-1.922-3.269-0.819-7.459,2.489-9.397
		c5.813-3.324,10.012-8.704,11.721-15.265c1.741-6.467,0.859-13.257-2.521-19.062c-1.875-3.285-0.756-7.491,2.521-9.374
		C193.987,437.082,195.877,436.885,197.587,437.334z"/>
	<path style="fill:#F28A00;" d="M151.522,416.901c1.489,0.89,2.647,2.363,3.135,4.214c2.718,10.012,1.323,20.504-3.875,29.475
		c-5.215,9.019-13.572,15.415-23.591,18.133c-3.702,0.992-7.428-1.205-8.428-4.821c-0.992-3.718,1.205-7.459,4.836-8.428
		c6.538-1.749,11.957-5.923,15.297-11.737c3.363-5.797,4.269-12.587,2.497-19.109c-0.961-3.608,1.229-7.389,4.884-8.428
		C148.104,415.735,149.986,416.042,151.522,416.901z"/>
	<path style="fill:#F28A00;" d="M352.636,87.275c-1.489-0.89-2.71-2.355-3.151-4.198c-2.741-10.012-1.308-20.512,3.836-29.46
		c5.207-9.019,13.596-15.455,23.607-18.156c3.694-0.992,7.459,1.197,8.397,4.86c0.969,3.663-1.166,7.428-4.821,8.373
		c-6.514,1.796-11.91,5.994-15.281,11.76c-3.387,5.813-4.238,12.627-2.513,19.078c1.008,3.631-1.174,7.412-4.836,8.436
		C356.015,88.449,354.172,88.118,352.636,87.275z"/>
	<path style="fill:#F28A00;" d="M87.215,151.543c-0.835,1.481-2.324,2.686-4.143,3.143c-10.019,2.725-20.504,1.339-29.523-3.891
		c-9.011-5.199-15.447-13.556-18.133-23.584c-0.969-3.663,1.213-7.428,4.829-8.428c3.726-0.922,7.444,1.213,8.413,4.876
		c1.757,6.475,5.939,11.91,11.776,15.25c5.782,3.403,12.587,4.317,19.078,2.552c3.663-1,7.444,1.166,8.405,4.852
		C88.436,148.148,88.097,149.991,87.215,151.543z"/>
	<path style="fill:#F28A00;" d="M416.904,352.672c0.835-1.505,2.324-2.694,4.175-3.167c10.004-2.741,20.512-1.363,29.46,3.844
		c9.027,5.215,15.462,13.588,18.148,23.631c0.992,3.663-1.182,7.428-4.868,8.381c-3.616,1-7.412-1.15-8.381-4.829
		c-1.725-6.522-5.876-11.957-11.721-15.344c-5.813-3.316-12.619-4.206-19.109-2.442c-3.623,0.953-7.389-1.166-8.381-4.892
		C415.722,356.06,416.045,354.177,416.904,352.672z"/>
	<path style="fill:#F28A00;" d="M206.661,64.409c-1.709,0.48-3.615,0.276-5.183-0.677c-9.035-5.175-15.455-13.58-18.188-23.631
		c-2.662-10.027-1.292-20.512,3.915-29.507c1.922-3.245,6.089-4.419,9.381-2.489c3.277,1.875,4.364,6.073,2.489,9.358
		c-3.411,5.829-4.254,12.587-2.544,19.125c1.796,6.491,5.908,11.918,11.768,15.265c3.277,1.922,4.372,6.089,2.497,9.397
		C209.835,62.873,208.307,63.975,206.661,64.409z"/>
	<path style="fill:#F28A00;" d="M297.498,439.768c1.678-0.457,3.576-0.244,5.23,0.677c8.988,5.199,15.431,13.627,18.085,23.583
		c2.741,10.09,1.331,20.543-3.883,29.57c-1.875,3.293-6.073,4.419-9.358,2.458c-3.277-1.843-4.427-6.049-2.529-9.381
		c3.395-5.774,4.293-12.532,2.529-19.062c-1.717-6.475-5.892-11.91-11.745-15.265c-3.237-1.89-4.372-6.105-2.505-9.374
		C294.26,441.327,295.82,440.24,297.498,439.768z"/>
</g>
<path style="fill:#09516D;" d="M193.877,286.68c0,13.533-10.988,12.257-24.505,12.257c-13.517,0-24.481,1.276-24.481-12.257
	c0-13.525,10.965-24.482,24.481-24.482C182.888,262.198,193.877,273.155,193.877,286.68z"/>
<path style="fill:#082130;" d="M193.877,286.68c0,13.533-10.988,12.257-24.505,12.257c-13.517,0-24.481,1.276-24.481-12.257
	c0-13.525,10.965-14.588,24.481-14.588C182.888,272.092,193.877,273.155,193.877,286.68z"/>
<path style="fill:#09516D;" d="M359.237,286.68c0,13.533-10.98,12.257-24.489,12.257c-13.533,0-24.497,1.276-24.497-12.257
	c0-13.525,10.973-24.482,24.497-24.482C348.264,262.198,359.237,273.155,359.237,286.68z"/>
<path style="fill:#082130;" d="M359.237,286.68c0,13.533-10.98,12.257-24.489,12.257c-13.533,0-24.497,1.276-24.497-12.257
	c0-13.525,10.973-14.588,24.497-14.588C348.264,272.092,359.237,273.155,359.237,286.68z"/>
<circle style="fill:#AF3A6A;" cx="252.064" cy="326.238" r="10.508"/>
<g>
</g>
<g>
</g>
<g>
</g>
<g>
</g>
<g>
</g>
<g>
</g>
<g>
</g>
<g>
</g>
<g>
</g>
<g>
</g>
<g>
</g>
<g>
</g>
<g>
</g>
<g>
</g>
<g>
</g>
</svg>
