<?xml version="1.0" encoding="iso-8859-1"?>
<!-- Generator: Adobe Illustrator 19.0.0, SVG Export Plug-In . SVG Version: 6.00 Build 0)  -->
<svg xmlns="http://www.w3.org/2000/svg" xmlns:xlink="http://www.w3.org/1999/xlink" version="1.1" id="Capa_1" x="0px" y="0px" viewBox="0 0 287.068 287.068" style="enable-background:new 0 0 287.068 287.068;" xml:space="preserve" width="512px" height="512px">
<g>
	<g id="Dibujo_34_">
		<g>
			<path d="M143.534,44.164c6.095,0,11.041-4.946,11.041-11.041V11.041C154.575,4.946,149.629,0,143.534,0     c-6.1,0-11.041,4.946-11.041,11.041v22.082C132.493,39.218,137.434,44.164,143.534,44.164z" fill="#FFFFFF"/>
			<path d="M33.123,132.493H11.041C4.941,132.493,0,137.44,0,143.534c0,6.095,4.941,11.041,11.041,11.041h22.082     c6.095,0,11.041-4.946,11.041-11.041C44.164,137.44,39.218,132.493,33.123,132.493z" fill="#FFFFFF"/>
			<path d="M276.027,132.493h-22.082c-6.1,0-11.041,4.946-11.041,11.041c0,6.095,4.941,11.041,11.041,11.041h22.082     c6.095,0,11.041-4.946,11.041-11.041C287.068,137.44,282.122,132.493,276.027,132.493z" fill="#FFFFFF"/>
			<path d="M245.03,42.039c-4.312-4.312-11.301-4.312-15.612,0l-15.612,15.612c-4.312,4.312-4.312,11.301,0,15.612     c2.159,2.159,4.98,3.235,7.806,3.235s5.648-1.076,7.806-3.235l15.612-15.612C249.341,53.34,249.341,46.351,245.03,42.039z" fill="#FFFFFF"/>
			<path d="M73.263,57.651L57.651,42.039c-4.312-4.312-11.301-4.312-15.612,0c-4.312,4.312-4.312,11.301,0,15.612l15.612,15.612     c2.159,2.159,4.98,3.235,7.806,3.235c2.827,0,5.653-1.076,7.806-3.235C77.58,68.952,77.58,61.968,73.263,57.651z" fill="#FFFFFF"/>
			<path d="M143.534,66.247c-42.619,0-77.288,34.669-77.288,77.288c0,13.52,3.599,26.891,10.423,38.66     c1.971,3.406,5.609,5.504,9.551,5.504h114.629c3.942,0,7.58-2.098,9.556-5.504c6.818-11.77,10.417-25.141,10.417-38.66     C220.822,100.916,186.153,66.247,143.534,66.247z M194.086,165.616H92.983c-3.058-6.967-4.654-14.491-4.654-22.082     c0-30.44,24.765-55.205,55.205-55.205s55.205,24.765,55.205,55.205C198.74,151.125,197.144,158.65,194.086,165.616z" fill="#FFFFFF"/>
			<path d="M151.34,213.016c-4.312-4.312-11.301-4.312-15.612,0l-33.123,33.123c-4.312,4.312-4.312,11.301,0,15.612     c4.312,4.312,11.301,4.312,15.612,0l14.276-14.276v28.552c0,6.095,4.941,11.041,11.041,11.041     c6.095,0,11.041-4.946,11.041-11.041v-28.552l14.276,14.276c2.159,2.159,4.98,3.235,7.806,3.235s5.648-1.077,7.806-3.235     c4.312-4.312,4.312-11.301,0-15.612L151.34,213.016z" fill="#FFFFFF"/>
		</g>
	</g>
</g>
<g>
</g>
<g>
</g>
<g>
</g>
<g>
</g>
<g>
</g>
<g>
</g>
<g>
</g>
<g>
</g>
<g>
</g>
<g>
</g>
<g>
</g>
<g>
</g>
<g>
</g>
<g>
</g>
<g>
</g>
</svg>
