<?xml version="1.0" encoding="utf-8"?>
<!-- Generator: Adobe Illustrator 24.1.1, SVG Export Plug-In . SVG Version: 6.00 Build 0)  -->
<svg version="1.1" id="Layer_1" xmlns="http://www.w3.org/2000/svg" xmlns:xlink="http://www.w3.org/1999/xlink" x="0px" y="0px"
	 viewBox="0 0 512 512" xml:space="preserve">
<g>
	<path fill="#FFFFFF" d="M0,238c0,27.4,8.1,51.8,24.4,73.3c16.3,21.4,37.5,36.2,63.6,44.1l-16.3,41.4c-0.7,3.5,0.5,5.4,3.5,5.4h52.5l-24.2,106h6.9
		l96.7-141.8l0.2-3.5l-3.7-1.7H150l61.2-114.4c1.7-3.4,0.5-5.4-3.5-5.4h-72.5c-2.2,0-4.2,1.2-5.7,3.7l-26.4,70.8
		c-17.5-4.4-32.1-14.1-43.7-28.6c-11.6-14.5-17.3-31.1-17.3-49.6c0-20.5,6.9-38.2,21-53.5c14.1-15,31.3-23.9,51.8-26.4l13.1-1.7
		c3.2,0,4.9-1.5,4.9-4.4l1.7-12.6c2.7-26.6,13.8-49.1,33.8-67.1c20-18,43.4-27.1,70.3-27.1C265.6,44.9,289,54,309,72
		c20.2,18,31.6,40.5,34.5,67.1l1.7,14.3c0,2.7,1.5,4.2,4.4,4.2h39.5c22.4,0,41.4,7.9,57.2,23.4c15.8,15.5,23.9,34.5,23.9,56.2
		c0,21-7.4,39.2-22,54.5c-14.5,15.3-32.8,23.9-54.3,25.7c-3.2,0-4.9,1.5-4.9,4.4v33.8c0,2.7,1.7,4.2,4.9,4.2
		c32.8-1,60.7-13.6,83.6-37.2c22.9-23.7,34.3-52,34.3-85.1c0-22.2-5.4-42.7-16.5-61.4c-10.9-18.7-25.9-33.5-44.6-44.4
		c-19-10.9-39.5-16.3-61.7-16.3h-7.6c-8.1-32.8-25.7-59.7-52-80.4c-26.4-20.7-56.7-31.3-90.8-31.3C204,3.7,172.9,14.5,146,36
		s-44.1,49.1-51.8,82.9c-27.4,6.4-49.8,20.5-67.6,42.7C8.9,183.7,0,209.6,0,238z M200.7,477.5c0,9.6,4.7,16,14.3,19l2.7,0.2l3.4,0.3
		c4.2,0,8.1-1.2,12.1-3.7c3.9-2.5,6.7-6.4,7.9-11.8l55.5-214.3c1.5-5.9,1-11.1-1.7-16c-2.7-4.7-6.7-7.9-12.3-9.6
		c-4.2-0.5-6.4-0.7-6.4-0.7c-3.9,0-7.9,1.2-11.6,3.7c-3.7,2.5-6.4,6.2-7.6,11.1l-55.7,215.1C201,473,200.7,475.3,200.7,477.5z
		 M303.4,402c0,3.2,0.7,6.4,2.5,9.4c3.5,5.4,7.6,9.1,12.6,10.9c2.7,0.7,5.2,1.2,7.4,1.2c2.2,0,4.9-0.5,7.9-2
		c5.2-2.2,8.6-6.9,10.4-14.1l35.5-139.8c0.7-3.5,1.2-5.7,1.2-6.7c0-3.7-1.2-7.4-3.9-11.1s-6.4-6.4-11.3-7.9
		c-4.2-0.5-6.4-0.7-6.4-0.7c-4.2,0-8.1,1.2-11.6,3.7c-3.5,2.5-5.9,6.2-7.4,11.1l-36,140.6l-0.3,2.7L303.4,402z"/>
</g>
</svg>
